Coordinates
version=1
nRows=13
nColumns=36
inDegrees=yes

Units are S.I. units (second, meters, Newtons, ...)
If the header above contains a line with 'inDegrees', this indicates whether rotational values are in degrees (yes) or radians (no).

endheader
time	pelvis_tilt	pelvis_list	pelvis_rotation	pelvis_tx	pelvis_ty	pelvis_tz	hip_flexion_r	hip_adduction_r	hip_rotation_r	knee_angle_r	knee_angle_r_beta	ankle_angle_r	subtalar_angle_r	mtp_angle_r	hip_flexion_l	hip_adduction_l	hip_rotation_l	knee_angle_l	knee_angle_l_beta	ankle_angle_l	subtalar_angle_l	mtp_angle_l	lumbar_extension	lumbar_bending	lumbar_rotation	arm_flex_r	arm_add_r	arm_rot_r	elbow_flex_r	pro_sup_r	arm_flex_l	arm_add_l	arm_rot_l	elbow_flex_l	pro_sup_l
      1.60000000	      1.44379434	     -2.98537442	     -5.81101453	      0.62375155	      0.99775607	     -0.11695895	     12.24829650	     -8.16861444	    -17.07804770	     29.25232723	      0.51054942	     13.88216678	    -14.98419267	     -7.49999669	     -2.28430545	      3.67974729	     -9.45386727	      2.28977509	      0.03996411	     13.40509106	      4.50102998	     -7.49999669	     -0.62511761	      1.12237791	     -4.77342294	      0.25542678	     -4.90235525	      9.22334018	     28.14616846	     68.00404689	     -4.07856054	    -11.86728066	     16.10669372	     21.67180765	     74.51510879
      1.61666670	      1.14951819	     -3.20701254	     -5.52391891	      0.62165848	      0.99733690	     -0.11250912	     11.31438090	     -7.06603411	    -16.25928197	     26.91498892	      0.46975517	     13.76152120	    -14.49299218	     -7.49999679	     -2.19145044	      3.28991003	     -9.19817275	      2.08715653	      0.03642775	     13.28021748	      4.88854596	     -7.49999679	     -0.44425513	      1.15546977	     -4.68260019	      0.13570561	     -4.88958669	      9.73415788	     27.80484356	     68.15055564	     -3.71773887	    -12.00373712	     16.57005900	     21.40112238	     74.47576376
      1.63333330	      0.92511696	     -3.42729404	     -5.17581447	      0.62261329	      0.99743113	     -0.11215616	     10.23732709	     -5.93979737	    -15.44394028	     24.42508274	      0.42629811	     13.41777858	    -13.92867772	     -7.49999749	     -2.15992301	      2.91382116	     -9.08341007	      1.90669364	      0.03327808	     13.15633923	      5.75278807	     -7.49999749	     -0.33259678	      1.21257711	     -4.71003027	      0.11640337	     -4.86778564	     10.42527022	     27.31245711	     67.49517200	     -3.39023750	    -12.15699298	     17.38410912	     21.41562472	     72.85685620
      1.65000000	      0.84634996	     -3.60630408	     -4.86613962	      0.62353646	      0.99693457	     -0.11176806	      9.04030776	     -4.92407750	    -14.75740131	     21.83752923	      0.38113679	     13.28325403	    -13.35425046	     -7.49999805	     -2.27768610	      2.63846703	     -8.94844845	      1.67818937	      0.02928993	     13.06328127	      6.38608706	     -7.49999805	     -0.44957828	      1.25810776	     -4.71426928	      0.17260245	     -4.84764593	     10.97238122	     26.90362117	     67.13075538	     -3.03790768	    -12.30604331	     18.12147489	     21.54469012	     71.77673178
      1.66666670	      0.85546376	     -3.76745138	     -4.59955638	      0.62332790	      0.99851485	     -0.11154258	      7.80432529	     -4.08033696	    -14.15848098	     19.26400889	      0.33622038	     13.00594002	    -12.76573860	     -7.49999851	     -2.41450960	      2.38608172	     -8.74982346	      1.52566800	      0.02662793	     12.95272662	      6.99701916	     -7.49999851	     -0.69317920	      1.32010114	     -4.77126524	      0.35118254	     -4.73345805	     11.00069813	     26.35802229	     66.39333104	     -2.74465602	    -12.38301395	     18.31129610	     22.00077041	     70.35957239
      1.68333330	      0.92046969	     -3.86045937	     -4.44330722	      0.62279773	      1.00090959	     -0.11142621	      6.57199308	     -3.42082202	    -13.66185846	     16.71327339	      0.29170165	     12.21979359	    -12.43228923	     -7.49999896	     -2.57934193	      2.23217025	     -8.83845886	      1.41215094	      0.02464668	     12.80781088	      7.79832062	     -7.49999896	     -0.99488354	      1.34290619	     -4.64280884	      0.52484627	     -4.75663806	     11.46367518	     25.86663430	     65.88950709	     -2.23139448	    -12.42221069	     18.85243890	     22.25414506	     69.16182097
      1.70000000	      1.01908395	     -3.90097378	     -4.39622837	      0.62301819	      0.99878022	     -0.11239192	      5.53507965	     -3.04310087	    -13.60736797	     14.64021243	      0.25551991	     11.40288666	    -12.25788375	     -7.49999937	     -2.77521274	      2.20956302	     -8.85875534	      1.30367144	      0.02275336	     12.74274374	      8.27582233	     -7.49999937	     -1.30178689	      1.38140536	     -4.44093313	      0.76299641	     -4.87932236	     12.35714211	     25.34040446	     65.79083123	     -1.65388616	    -12.51299755	     20.29134519	     22.41543299	     68.44111729
      1.71666670	      0.86963500	     -3.88676410	     -4.43546386	      0.62087204	      1.00367879	     -0.11189456	      4.89980326	     -2.74920224	    -13.72398840	     12.79043076	      0.22323513	     10.48876421	    -11.78137285	     -7.49999938	     -2.62586761	      2.24018984	     -8.86330877	      1.17271549	      0.02046775	     12.29499917	      8.35386558	     -7.49999938	     -1.38761201	      1.39077781	     -4.12415440	      0.90151765	     -4.97907666	     12.43291036	     25.13919322	     65.86409924	     -1.11620725	    -12.40170363	     20.30279207	     22.73795499	     68.49419031
      1.73333330	      1.26538168	     -3.88160800	     -4.43678643	      0.62005449	      1.00301547	     -0.10912015	      3.75826360	     -2.49094143	    -13.89439232	     11.12438630	      0.19415717	      9.76139602	    -11.48765432	     -7.49999957	     -3.09237984	      2.23110763	     -8.86886329	      1.04285170	      0.01820120	     11.98699261	      8.59954530	     -7.49999957	     -2.15966629	      1.36661026	     -3.89661480	      1.28571361	     -4.97957085	     13.06674284	     24.81005341	     65.37191473	     -0.48488061	    -12.46065067	     21.00055606	     23.22580474	     67.37718520
      1.75000000	      1.28354235	     -3.79618043	     -4.52510772	      0.61875412	      1.00542941	     -0.10890944	      3.15204981	     -2.33787484	    -14.03728778	      9.73997800	      0.16999469	      8.95173586	    -11.11683113	     -7.49999970	     -3.05156504	      2.27911258	     -9.00932718	      0.97962733	      0.01709772	     11.57593047	      8.92555097	     -7.49999970	     -2.48014464	      1.27394578	     -3.56758234	      1.62600761	     -4.89025452	     12.98778990	     24.30182943	     64.38838980	      0.07553520	    -12.38512348	     21.04609466	     23.79585267	     65.89782914
      1.76666670	      1.41413257	     -3.78565469	     -4.46941735	      0.61832946	      1.00348869	     -0.10629213	      2.46927409	     -2.14291095	    -14.42829603	      8.47925193	      0.14799086	      8.52024929	    -10.37753842	     -7.49999980	     -3.14350676	      2.19461149	     -8.75404860	      0.96526970	      0.01684713	     11.47104580	      8.85631219	     -7.49999980	     -2.86969043	      1.20997882	     -3.34964857	      1.92868711	     -5.01370140	     14.14837655	     24.12048812	     64.65535876	      0.75260920	    -12.53779058	     22.39528014	     24.26182070	     65.76689587
      1.78333330	      1.41506394	     -3.82080523	     -4.51273354	      0.61895903	      1.00102475	     -0.10305773	      2.07483225	     -1.91968405	    -14.77818786	      7.61429756	      0.13289456	      8.20234115	     -9.81462784	     -7.49999984	     -3.17675245	      2.00582114	     -8.75313750	      0.90234818	      0.01574895	     11.47421592	      8.96736039	     -7.49999984	     -3.07370761	      1.18340833	     -3.02567230	      2.12080046	     -4.94477571	     14.15599197	     23.84009409	     65.29283901	      1.25861878	    -12.55583252	     22.58170005	     24.83967176	     66.31732544
      1.80000000	      1.44170418	     -3.85396045	     -4.56599062	      0.61883357	      0.99517488	     -0.10348711	      1.76916011	     -1.77450775	    -15.20605106	      7.17748751	      0.12527079	      8.40159670	     -9.31536977	     -7.49999984	     -3.20489668	      1.87229596	     -8.64652349	      0.90651548	      0.01582168	     11.79374542	      8.76703900	     -7.49999984	     -3.31658442	      1.14907510	     -2.75564252	      2.26502904	     -4.92898799	     14.14121634	     23.87499292	     65.30691773	      1.65134131	    -12.59031610	     22.45345850	     25.64797174	     66.22756122
